<svg width="34" height="34" viewBox="0 0 34 34" fill="none" xmlns="http://www.w3.org/2000/svg">
<path opacity="0.5" d="M17.1 33.7H16.8C7.8 33.7 0.5 26.4 0.5 17.4V17.1C0.5 8.09998 7.8 0.799988 16.8 0.799988H17.1C26.1 0.799988 33.4 8.09998 33.4 17.1V17.4C33.3 26.4 26 33.7 17.1 33.7Z" fill="#A5B4C4"/>
<path d="M23 22.6L23.7 18.1H19.3V15.1C19.3 13.9 19.9 12.6 21.9 12.6H23.9V8.69995C23.9 8.69995 22.1 8.40002 20.4 8.40002C16.8 8.40002 14.5 10.6 14.5 14.5V18H10.5V22.5H14.5V33.5C15.3 33.6 16.1 33.7 17 33.7C17.8 33.7 18.7 33.6 19.5 33.5V22.5H23V22.6Z" fill="white"/>
</svg>
