<svg width="34" height="34" viewBox="0 0 34 34" fill="none" xmlns="http://www.w3.org/2000/svg">
<path opacity="0.5" d="M17.3998 33.4H17.0998C8.09981 33.4 0.799805 26.1 0.799805 17.1V16.8C0.799805 7.80005 8.09981 0.5 17.0998 0.5H17.3998C26.3998 0.5 33.6998 7.80005 33.6998 16.8V17.1C33.6998 26.1 26.3998 33.4 17.3998 33.4Z" fill="#A5B4C4"/>
<path d="M14.0996 25.6C21.7996 25.6 25.9996 19.2 25.9996 13.7C25.9996 13.5 25.9996 13.3 25.9996 13.2C26.7996 12.6 27.4996 11.9 28.0996 11C27.3996 11.3 26.4996 11.6 25.6996 11.7C26.5996 11.2 27.1996 10.4 27.4996 9.40002C26.6996 9.90002 25.7996 10.2 24.7996 10.4C23.9996 9.60002 22.9996 9.09998 21.6996 9.09998C19.3996 9.09998 17.4996 11 17.4996 13.3C17.4996 13.6 17.4996 13.9 17.5996 14.3C14.0996 14.1 10.9996 12.5 8.9996 9.90002C8.5996 10.5 8.3996 11.2 8.3996 12C8.3996 13.4 9.09961 14.7 10.2996 15.5C9.59961 15.5 8.9996 15.3 8.3996 15C8.3996 15 8.3996 15 8.3996 15.1C8.3996 17.1 9.79961 18.8 11.7996 19.2C11.3996 19.3 11.0996 19.3 10.6996 19.3C10.3996 19.3 10.1996 19.3 9.8996 19.2C10.3996 20.9 11.9996 22.1 13.7996 22.1C12.3996 23.2 10.5996 23.9 8.59961 23.9C8.29961 23.9 7.89961 23.9 7.59961 23.8C9.49961 24.9 11.6996 25.6 14.0996 25.6Z" fill="white"/>
</svg>
