<svg width="32" height="32" viewBox="0 0 32 32" fill="none" xmlns="http://www.w3.org/2000/svg">
<path d="M1.7002 31.5C2.1002 31.5 2.4002 31.4 2.7002 31.2L15.7002 18L28.7002 31C28.9002 31.2 29.2002 31.3 29.7002 31.3C30.1002 31.3 30.4002 31.2 30.7002 31C31.0002 30.7 31.1002 30.4 31.1002 30.1C31.1002 29.8 31.0002 29.5 30.7002 29.2L17.5002 16.2L30.7002 3.20002C30.9002 2.90002 31.1002 2.60003 31.1002 2.30003C31.1002 2.00003 31.0002 1.70002 30.7002 1.40002C30.2002 0.900024 29.4003 0.900024 28.9003 1.40002L15.7002 14.4L2.7002 1.20002C2.5002 1.00002 2.1002 0.900024 1.7002 0.900024C1.3002 0.900024 1.0002 1.00002 0.700195 1.20002C0.500195 1.40002 0.400293 1.70002 0.300293 2.00002C0.300293 2.40002 0.400195 2.70002 0.700195 3.00002L13.9003 16.2L0.700195 29.2C0.500195 29.5 0.300293 29.8 0.300293 30.1C0.300293 30.4 0.400195 30.7 0.700195 31C1.0002 31.4 1.2002 31.5 1.7002 31.5Z" fill="#A5B4C4"/>
</svg>
