<svg width="27" height="27" viewBox="0 0 27 27" fill="none" xmlns="http://www.w3.org/2000/svg">
<path d="M13.7 26.4H13.4C6.29999 26.4 0.5 20.6 0.5 13.5V13.2C0.5 6.10004 6.29999 0.300049 13.4 0.300049H13.7C20.8 0.300049 26.6 6.10004 26.6 13.2V13.5C26.5 20.6 20.8 26.4 13.7 26.4Z" fill="#00B7F1"/>
<path d="M15.3 7.40002H7.79999V19.3H15.3C17.9 19.3 20 17.2 20 14.7V12C20 9.50002 17.9 7.40002 15.3 7.40002ZM15.3 16.3H10.9V10.4H15.3C16.2 10.4 16.9 11.1 16.9 12V14.7C17 15.6 16.2 16.3 15.3 16.3Z" fill="white"/>
</svg>
