<svg width="30" height="31" viewBox="0 0 30 31" fill="none" xmlns="http://www.w3.org/2000/svg">
<path d="M15.1 30.1001H14.8C6.60005 30.1001 0 23.5 0 15.2V14.8999C0 6.6999 6.60005 0.100098 14.8 0.100098H15.1C23.3 0.100098 29.9 6.6999 29.9 14.8999V15.2C29.9 23.4 23.3 30.1001 15.1 30.1001Z" fill="#00B7F1"/>
<path d="M5.1001 19.2C5.1001 18.7 5.1001 18.1001 5.1001 17.6001C5.1001 17.5001 5.1001 17.3999 5.1001 17.3999C5.2001 16.7999 5.20017 16.2001 5.30017 15.6001C5.70017 13.2001 6.70012 11.1 8.00012 9C8.00012 8.9 8.10007 8.90005 8.20007 8.80005C9.40007 8.20005 10.7001 7.9001 12.0001 7.6001C12.1001 7.6001 12.2001 7.59995 12.2001 7.69995C12.3001 7.99995 12.5001 8.2 12.6001 8.5C12.7001 8.7 12.7001 8.69995 12.9001 8.69995C13.5001 8.59995 14.0001 8.6001 14.6001 8.6001C15.4001 8.6001 16.2001 8.69995 17.0001 8.69995C17.1001 8.69995 17.2002 8.7001 17.3002 8.6001C17.4002 8.3001 17.5001 8.10005 17.7001 7.80005C17.7001 7.70005 17.8001 7.69995 17.9001 7.69995C19.2001 7.89995 20.5001 8.2999 21.7001 8.8999C21.8001 8.8999 21.9001 9.0001 21.9001 9.1001C22.2001 9.7001 22.6001 10.2 22.9001 10.8C23.9001 12.6 24.5001 14.5001 24.7001 16.6001C24.7001 17.0001 24.8002 17.3 24.8002 17.7C24.8002 18.2 24.8002 18.8 24.8002 19.3C24.8002 19.6 24.8001 19.8001 24.7001 20.1001C24.7001 20.2001 24.6001 20.3 24.6001 20.3C23.2001 21.3 21.8001 22.1001 20.2001 22.6001C19.8001 22.8001 19.7001 22.7999 19.5001 22.3999C19.2001 21.9999 19.0001 21.5001 18.7001 21.1001C19.0001 21.0001 19.3001 20.9 19.6001 20.7C19.9001 20.6 20.1001 20.4 20.4001 20.3C20.1001 20 20.1001 19.9001 19.7001 20.1001C16.6001 21.4001 13.4002 21.4001 10.3002 20.1001C10.0002 20.0001 9.9001 20 9.6001 20.3C10.1001 20.6 10.7002 20.8001 11.3002 21.1001C11.0002 21.6001 10.6002 22.1 10.3002 22.7C10.2002 22.8 10.2001 22.8 10.0001 22.8C8.30012 22.3 6.70017 21.4999 5.30017 20.3999C5.20017 20.2999 5.20007 20.2 5.20007 20.2C5.10007 19.7 5.1001 19.4 5.1001 19.2ZM20.0001 15.8C20.0001 15.7 20.0001 15.6 20.0001 15.5C20.0001 15.4 19.9001 15.2001 19.9001 15.1001C19.5001 13.9001 18.0001 13.5 17.1001 14.3C16.3001 15.1 16.3001 16.5 17.1001 17.3C17.8001 18 18.8001 17.9 19.4001 17.3C19.8001 16.9 20.0001 16.4 20.0001 15.8ZM13.5001 15.8C13.4001 15.6 13.4002 15.3001 13.3002 15.1001C12.9002 13.9001 11.5001 13.5 10.6001 14.3C9.7001 15.1 9.7001 16.5999 10.6001 17.3999C11.3001 17.9999 12.3001 18 12.9001 17.3C13.3001 16.9 13.4001 16.4 13.5001 15.8Z" fill="white"/>
</svg>
