<svg width="31" height="31" viewBox="0 0 31 31" fill="none" xmlns="http://www.w3.org/2000/svg">
<path d="M15.6999 30.1001H15.3999C7.1999 30.1001 0.599854 23.5 0.599854 15.2V14.8999C0.599854 6.6999 7.1999 0.100098 15.3999 0.100098H15.6999C23.8999 0.100098 30.5999 6.6999 30.5999 14.8999V15.2C30.4999 23.4 23.8999 30.1001 15.6999 30.1001Z" fill="#00B7F1"/>
<path d="M21.0999 20L21.6999 15.8H17.6999V13.1001C17.6999 12.0001 18.2999 10.8999 19.9999 10.8999H21.7999V7.3999C21.7999 7.3999 20.1999 7.1001 18.5999 7.1001C15.2999 7.1001 13.1999 9.09995 13.1999 12.7V15.8999H9.59985V20.1001H13.1999V30.1001C13.8999 30.2001 14.6999 30.3 15.3999 30.3C16.0999 30.3 16.8999 30.2001 17.5999 30.1001V20.1001H21.0999V20Z" fill="white"/>
</svg>
