<svg width="27" height="27" viewBox="0 0 27 27" fill="none" xmlns="http://www.w3.org/2000/svg">
<path d="M13.3 26.4H13C5.90003 26.4 0.100037 20.6 0.100037 13.5V13.2C0.100037 6.10004 5.90003 0.300049 13 0.300049H13.3C20.4 0.300049 26.2 6.10004 26.2 13.2V13.5C26.2 20.6 20.4 26.4 13.3 26.4Z" fill="#00B7F1"/>
<path d="M17.5 16.1C17.8 16.4 18.1 16.8 18.4 17.1C18.6 17.3 18.7 17.5 18.9 17.6V17.7C18.8 17.7 18.8 17.7 18.7 17.7C18.6 17.7 18.6 17.6 18.6 17.6C18.2 17.2 17.8 16.8 17.4 16.4001C17.3 16.3 17.3 16.3001 17.2 16.3001C17 16.6001 16.7 16.9 16.5 17.2C16.6 17.2 16.7 17.2 16.7 17.2C17.2 17.2 17.5 17.6 17.4 18.1C17.4 18.2 17.3 18.3001 17.3 18.3001C17.3 18.1001 17.3 18.0001 17.3 17.8001C17.3 17.6001 17.1 17.5001 16.9 17.4001C16.6 17.2001 16.3 17.3 16.1 17.5C16.2 17.5 16.3 17.5 16.4 17.6C16.1 17.6 16.2 17.8 16.2 18C16.3 18.2 16.3 18.5001 16.3 18.8001C16.3 19.1001 16.2 19.3 15.8 19.4001C15.6 19.4001 15.4 19.4001 15.2 19.4001C15.1 19.4001 14.9 19.4001 14.8 19.4001C14.9 20.2001 14.8 21 14.4 21.6C14.3 21.8 14.1 21.9 13.9 22C14.1 21.8 14.2 21.5001 14.4 21.3001C14.6 20.9001 14.7 20.5 14.7 20.1C14.7 19.9 14.7 19.7 14.7 19.5C14.7 19.3 14.6 19.2 14.5 19.2C14.4 19.2 14.2 19.1 14.1 19.1C14 19.1 13.8 19.1 13.7 19.1C13.3 19.2 12.9 19.1001 12.6 18.8001L12.5 18.7C12.4 18.8 12.4 18.8 12.4 18.9001C11.8 19.5001 11.6 20.2 11.5 21C11.4 21.6 11.3 22.1 11.2 22.7C11.2 22.9 11 23.1 10.9 23.2C10.8 23.3 10.7 23.3001 10.5 23.3001C10.9 23.3001 10.9 23 11 22.7C11.2 22.1 11.3 21.4001 11.4 20.8001C11.4 20.6001 11.4 20.5001 11.4 20.3001C11.4 20.3001 11.4 20.3001 11.3 20.3001C11.2 20.4001 11.1 20.4 11.1 20.5C10.7 20.9 10.4 21.4001 10 21.8001C9.80003 22.0001 9.60003 22.1001 9.50003 22.3001C9.50003 22.3001 9.40002 22.4001 9.30002 22.4001C9.40002 22.3001 9.40003 22.2 9.50003 22.1C9.70003 21.9 10 21.6 10.2 21.4001C10.9 20.8 11.4 20 11.5 19V18.9001C11.2 19.2001 11 19.5001 10.7 19.8001C10.1 20.4001 9.50002 21.1 8.90002 21.7C8.80002 21.8 8.50002 21.9 8.30002 22C8.10002 22.1 8.00004 21.9001 8.10004 21.8001C8.30004 21.5001 8.50004 21.1001 8.60004 20.8001H8.70004C8.70004 20.8001 8.80004 20.9001 8.70004 20.9001C8.70004 21.0001 8.60004 21.1 8.60004 21.2C8.50004 21.4 8.40002 21.5 8.40002 21.7C9.50002 20.9 10.4 19.9001 11.3 18.8001C11 18.6001 10.9 18.6 10.8 18.9001C10.7 19.3 10.5 19.6 10.2 19.9001C10.2 20.0001 10.1 20 10 20C10 19.6 10.4 19.4 10.5 19.1C10.3 19.3 10.1 19.5 9.90002 19.6C9.80002 19.7 9.70004 19.7001 9.60004 19.8001H9.40002C9.40002 19.7001 9.40002 19.7 9.40002 19.6L9.50003 19.5C9.60003 19.5 9.70004 19.5001 9.70004 19.4001C10 19.1 10.3 18.9 10.6 18.6C10.5 18.5 10.4 18.5001 10.3 18.4001C10.3 18.4001 10.2 18.4001 10.1 18.4001C9.90004 18.6 9.70002 18.6 9.40002 18.6C9.30002 18.6 9.20004 18.6 9.10004 18.7C8.70004 19.2 8.00003 19.3 7.50003 18.7C7.20003 18.3 7.00003 17.9001 7.00003 17.4001C7.00003 17.0001 7.10002 16.7 7.40002 16.5C7.50002 16.4 7.60003 16.3 7.50003 16.2C7.30003 15.9 7.10002 15.7001 6.80002 15.4001C6.50002 15.1 6.20004 14.8001 6.20004 14.3001C6.20004 14.0001 6.30003 13.8 6.50003 13.7C7.20003 13.4 7.30002 12.7 7.30002 12C7.30002 11.7 7.30002 11.5 7.30002 11.2C6.90002 11.4 6.50002 11.6 6.30002 12C6.20002 12.1 6.30002 12.2 6.40002 12.2C6.70002 12.2 6.80002 12.4 6.90002 12.7C6.90002 12.9 6.80004 13 6.60004 13C6.30004 12.9 6.00004 12.7 5.70004 12.6C5.60004 12.6 5.60004 12.5001 5.60004 12.4001C5.60004 12.3001 5.70002 12.3 5.80002 12.2C6.00002 12.2 6.10004 12.0001 6.20004 11.8001C6.30004 11.5001 6.50002 11.3 6.80002 11.2C7.40002 11 7.60002 10.6 7.80002 10.1C7.80002 10 7.90003 9.80005 8.00003 9.70005C7.80003 9.60005 7.60002 9.40005 7.30002 9.30005C7.20002 9.30005 7.10004 9.20005 7.10004 9.20005C7.10004 9.20005 7.00003 9.10005 7.00003 9.00005C7.10003 9.00005 7.10004 9.00005 7.20004 9.00005C7.50004 9.10005 7.90004 9.20005 8.20004 9.40005C8.50004 9.50005 8.60002 9.60005 8.80002 9.30005C8.90002 9.20005 8.90003 9.20005 9.00003 9.10005C9.10003 9.00005 9.20002 9.00005 9.30002 8.90005C8.80002 8.60005 8.20004 8.20005 7.70004 7.90005V7.80005C7.80004 7.80005 8.00004 7.80005 8.20004 7.90005C8.70004 8.10005 9.20004 8.30005 9.60004 8.60005C9.70004 8.70005 9.80002 8.70005 9.90002 8.60005L9.00003 7.90005C8.90003 7.80005 8.80004 7.70005 8.70004 7.60005C8.70004 7.60005 8.70004 7.50005 8.60004 7.40005C8.70004 7.40005 8.70002 7.40005 8.80002 7.40005C9.30002 7.60005 9.80004 7.80005 10.2 8.20005C10.3 8.30005 10.4 8.30005 10.5 8.30005C10.8 8.10005 11 8.00005 11.3 7.80005C11.9 7.50005 12.5 7.40005 13.2 7.30005C13.8 7.30005 14.3 7.30005 14.9 7.30005C15 7.30005 15.1 7.30005 15.1 7.20005C15.2 6.90005 15.4 6.70005 15.5 6.40005C15.6 6.00005 15.3 5.60005 14.9 5.80005C14.5 5.90005 14.2 6.10005 13.9 6.30005C13.8 6.40005 13.6 6.50005 13.5 6.60005C13.6 6.50005 13.7 6.40005 13.8 6.30005C14.1 6.10005 14.3 6.00005 14.6 5.80005C14.9 5.60005 15.2 5.70005 15.5 5.70005C15.7 5.70005 15.8 5.90005 15.8 6.10005C15.8 6.40005 15.7 6.70005 15.5 6.90005C15.3 7.30005 15.3 7.30005 15.7 7.50005C15.8 7.50005 15.8 7.50005 15.9 7.60005C16.1 7.70005 16.2 7.70005 16.3 7.50005C16.3 7.50005 16.4 7.40005 16.5 7.40005C16.5 7.40005 16.5 7.50005 16.6 7.50005C16.5 7.60005 16.4 7.60005 16.4 7.60005C16.4 7.60005 16.5 7.70005 16.5 7.80005C16.5 7.90005 16.6 7.90005 16.6 8.00005C16.8 7.60005 17 7.30005 17 6.80005C17 6.70005 16.9 6.70005 16.9 6.60005C16.9 6.60005 16.8 6.50005 16.7 6.50005C16.9 6.40005 17.1 6.50005 17.2 6.70005C17.2 7.10005 17.1 7.40005 17 7.70005C16.9 7.80005 16.9 8.00005 16.8 8.10005C16.8 8.10005 16.8 8.10005 16.9 8.10005C17.1 7.90005 17.2 7.80005 17.4 7.60005C17.6 7.30005 17.8 7.10005 18 6.80005C18 6.80005 18 6.70005 18 6.60005C18 6.60005 18 6.60005 17.9 6.60005L18 6.50005H18.1V6.60005C18 6.80005 17.9 7.00005 17.7 7.20005C17.6 7.30005 17.5 7.40005 17.3 7.50005C17.3 7.50005 17.3 7.50005 17.3 7.60005L17.9 7.20005C18.5 6.80005 19.1 6.40005 19.6 6.00005C19.7 5.90005 19.8 5.90005 19.9 5.90005V6.00005C19.8 6.00005 19.8 6.10005 19.7 6.10005C18.7 6.90005 17.7 7.60005 16.7 8.40005C16.6 8.50005 16.5 8.50005 16.5 8.60005C16.5 8.70005 16.5 8.80005 16.5 8.90005C16.5 9.00005 16.9 9.00005 17 8.90005C17.4 8.70005 17.7 8.50005 18.1 8.30005C18.2 8.30005 18.2 8.20005 18.3 8.20005C18.3 8.20005 18.3 8.20005 18.3 8.30005C17.9 8.60005 17.5 8.80005 17.1 9.10005C17.3 9.30005 17.5 9.40005 17.8 9.30005C18 9.20005 18.2 9.00005 18.5 8.90005C18.6 8.90005 18.6 8.80005 18.7 8.80005C18.7 8.80005 18.7 8.80005 18.7 8.90005C18.6 9.00005 18.5 9.10005 18.4 9.20005L19 9.00005C19.1 9.10005 19.1 9.10005 19.2 9.20005C19.3 9.30005 19.3 9.30005 19.3 9.40005C19.2 9.40005 19.1 9.50005 19.1 9.50005C19.1 9.50005 19.1 9.50005 19.1 9.40005L19.2 9.30005C19 9.10005 18.3 9.20005 18 9.50005C18.2 9.70005 18.3 9.70005 18.5 9.50005C18.6 9.40005 18.7 9.30005 18.8 9.20005C18.6 9.40005 18.5 9.50005 18.3 9.70005C18.6 10 18.9 10.3 19.2 10.6C19.2 10.6 19.3 10.7 19.4 10.7C19.6 10.7 19.8 10.7 20 10.7C20.1 10.7 20.3 10.7 20.4 10.6C20.6 10.5 20.7 10.5 20.9 10.7L20.8 10.6C20.6 10.5 20.5 10.5 20.4 10.7C20.3 11 20.3 11.2 20.2 11.5C20.1 12.5 19.5 13.2 18.5 13.6C18.3 13.7 18.1 14 18.2 14.2C18.2 14.3 18.4 14.3001 18.5 14.3001C18.9 14.3001 19.3 14.3 19.7 14.2C20.2 14.1 20.7 14.0001 21.3 13.9001H21.2C21.2 13.9001 21.2 13.8001 21.1 13.8001L21.2 13.7C21.3 13.7 21.4 13.7 21.5 13.7C21.6 13.7 21.6 13.8 21.7 13.9001L21.6 14C21.2 14.2 20.8 14.3001 20.4 14.3001C19.7 14.4001 19.1 14.4001 18.4 14.4001C18 14.4001 18 14.4001 17.9 14.8001C19.5 15.1001 21.2 15.1001 22.8 14.8001V14.9001C22.6 15.0001 22.5 15.1 22.3 15.1C21.6 15.3 21 15.4 20.3 15.5C20.2 15.5 20 15.5 20 15.7C20 15.8 19.8 15.9001 19.7 15.9001C19.3 15.9001 18.9 15.8 18.6 15.7C18.4 15.7 18.2 15.5 17.9 15.5C17.8 15.5 17.7 15.4 17.7 15.5H17.6C17.8 15.8 17.7 15.9 17.5 16.1ZM14.4 18.3001C14.5 18.5001 14.6 18.8 14.8 19L14.9 19.1C15.2 19.1 15.4 19.2 15.7 19.2C16.1 19.2 16.4 18.9 16.3 18.5C16.3 18.3 16.1 18.0001 16 17.8001C16 17.7001 15.9 17.7 15.8 17.7C15.6 17.8 15.5 17.9 15.3 18C15 18.1 14.7 18.2001 14.4 18.3001ZM7.90002 16.7C7.90002 16.6 7.90003 16.5 8.00003 16.5C8.00003 16.4 8.00003 16.4001 8.00003 16.4001H7.90002C7.70002 16.5001 7.60003 16.7001 7.50003 16.9001V17C7.60003 17.1 7.70003 17.3 8.00003 17.2C8.20003 17.2 8.20002 17.2001 8.30002 17.4001C8.30002 17.5001 8.40002 17.6 8.40002 17.6C8.50002 17.7 8.70002 17.8 8.90002 17.9001C9.10002 18.0001 9.10004 17.8 9.20004 17.7C9.30004 17.6 9.20004 17.6 9.10004 17.5C8.80004 17.3 8.50002 17.0001 8.30002 16.8001C8.30002 16.8001 8.20004 16.7 8.20004 16.6C8.20004 16.6 8.20004 16.6 8.10004 16.7C8.00004 16.7 7.90002 16.7 7.90002 16.7ZM17.2 11C17.2 11.4 17.2 11.8001 17.1 12.3001C17.1 12.3001 17.1 12.4001 17.2 12.4001C17.4 12.5001 17.5 12.6 17.7 12.7C18 12.2 17.7 11.2 17.2 11ZM7.40002 17C7.40002 17 7.30002 17 7.40002 17C7.30002 17.2 7.30002 17.4 7.30002 17.6C7.40002 18.1 7.70003 18.4 8.00003 18.7C8.50003 19 8.80004 18.8 9.20004 18.4001C9.00004 18.2001 8.90004 18.2001 8.70004 18.3001C8.30004 18.6001 7.80003 18.5 7.50003 18.1C7.30003 17.8 7.30003 17.5001 7.50003 17.3001C7.50003 17.1001 7.50002 17 7.40002 17ZM15.5 17.5C15.2 17.4 14.8 17.4001 14.5 17.4001C14.2 17.4001 13.9 17.5 13.6 17.6C13.5 17.6 13.4 17.7001 13.5 17.8001C13.7 17.9001 14 18.1 14.3 18C14.7 17.8 15.1 17.6 15.5 17.5ZM8.80002 18C8.70002 17.9 8.60003 17.9001 8.50003 17.8001C8.30003 17.6001 8.10002 17.5001 7.90002 17.3001C7.80002 17.3001 7.80004 17.2 7.70004 17.2C7.70004 17.2 7.60004 17.3 7.60004 17.4001C7.60004 17.7001 7.80004 18 8.10004 18.1C8.30004 18.3 8.50002 18.3 8.80002 18ZM18.6 13.9001C19.6 13.7001 20.5 12.4001 20.4 11.4001C20.1 11.6 20 11.9001 19.9 12.3001C19.9 12.7001 19.7 13.0001 19.4 13.3001C19.2 13.4001 18.9 13.5 18.7 13.7C18.6 13.7 18.5 13.8 18.6 13.9001ZM18.6 11.6C18.5 11.5 18.4 11.5 18.4 11.5C18.3 11.4 18.3 11.4001 18.3 11.3001C18.3 11.1001 18.3 10.9001 18.1 10.8001C17.9 10.6001 17.6 10.5001 17.3 10.3001H17.2C17.2 10.3001 17.2 10.4001 17.3 10.4001C17.4 10.5001 17.4 10.5 17.5 10.6C17.8 10.8 18 11.0001 18.2 11.3001C18.3 11.4001 18.4 11.5 18.5 11.7L18.6 11.6ZM12.9 9.30005C13 9.40005 12.9 9.60005 13.1 9.60005C13.4 9.60005 13.8 9.60005 14.1 9.60005C14.2 9.60005 14.3 9.60005 14.3 9.50005C14.3 9.40005 14.3 9.20005 14.1 9.20005C13.7 9.20005 13.3 9.20005 12.9 9.30005ZM14.9 7.60005C14.9 7.70005 14.9 7.70005 14.9 7.60005C15.4 7.90005 15.7 8.40005 16 8.90005C16.1 8.70005 16.2 8.60005 16.3 8.50005V8.40005C16.2 8.30005 16.1 8.20005 16 8.10005C15.8 8.00005 15.5 7.80005 15.3 7.70005C15.1 7.60005 15 7.70005 14.9 7.60005ZM9.40002 11.9001C9.50002 11.9001 9.50002 11.9001 9.40002 11.9001C9.40002 11.8001 9.30004 11.7 9.20004 11.7C9.10004 11.7 9.10003 11.8001 9.00003 11.8001C8.90003 11.9001 8.90002 12.1 8.80002 12.2C8.70002 12.4 8.70004 12.7001 8.60004 12.9001C8.60004 13.0001 8.70004 13 8.70004 13.1L8.80002 13C8.90002 12.8 9.00004 12.6 9.10004 12.4001C9.20004 12.1 9.20003 12.1 9.00003 11.9001C9.00003 11.9001 9.00002 11.8001 8.90002 11.8001C9.30002 11.9001 9.40002 11.9001 9.40002 11.9001ZM19.6 12.3001C19 12.4001 18.8 12.8001 18.7 13.3001C19.3 13.1001 19.7 12.8001 19.6 12.3001ZM13.3 8.40005C12.9 8.20005 12.5 8.20005 12.1 8.30005C12.1 8.30005 12 8.40005 12.1 8.50005C12.2 8.70005 12.5 8.80005 12.7 8.70005C12.8 8.70005 12.9 8.60005 12.9 8.60005C13 8.50005 13.1 8.50005 13.3 8.40005ZM12.5 7.70005C13 7.80005 13.5 7.90005 14 7.90005C14.1 7.90005 14.2 7.90005 14.3 7.80005C14.1 7.60005 13.2 7.50005 12.5 7.70005ZM19.4 11.4001C19 11.6 18.9 12.1 19.1 12.5C19.3 12.4 19.5 12.3 19.6 12.2V12.1C19.6 11.8 19.5 11.6 19.4 11.4001ZM9.40002 9.40005C9.10002 9.40005 8.90002 9.70005 8.90002 10C8.90002 10.3 8.80004 10.5 9.10004 10.7H9.20004C9.30004 10.2 9.40002 9.80005 9.40002 9.40005ZM7.90002 15.6C7.70002 15 7.50002 14.4001 7.30002 13.8001C7.10002 14.2001 7.20002 14.8 7.30002 15V14.5C7.40002 14.9 7.50002 15.3 7.90002 15.6ZM8.90002 11.8001C8.80002 11.8001 8.70004 11.8001 8.60004 11.9001C8.40004 12.2001 8.30002 12.6 8.30002 13C8.30002 13.1 8.40002 13.1 8.40002 13.2C8.40002 13.1 8.50003 13.1 8.50003 13C8.60003 12.7 8.70002 12.4 8.80002 12C8.90002 11.9 8.90002 11.9001 8.90002 11.8001ZM8.70004 14.8001C8.70004 14.8001 8.70004 14.9001 8.70004 14.8001C8.50004 15.0001 8.40002 15.2001 8.40002 15.4001C8.40002 15.6 8.60004 15.8 8.70004 15.7C9.10004 15.5 9.20002 15.3 8.90002 14.9001C8.80002 15.0001 8.70004 14.9001 8.70004 14.8001ZM9.50003 10.4001C10.1 10.2001 10.1 10.2 10 9.70005C10 9.60005 10 9.60005 10 9.50005C10 9.40005 9.90002 9.40005 9.90002 9.30005L9.80002 9.40005C9.70002 9.70005 9.60003 10.0001 9.50003 10.4001ZM8.60004 9.90005C8.60004 9.90005 8.50004 9.90005 8.60004 9.90005C8.40004 10.1 8.30004 10.4 8.10004 10.6V10.7C8.30004 10.8 8.60002 10.8001 8.80002 10.9001C8.60002 10.6 8.60004 10.3001 8.60004 9.90005ZM13.8 8.10005L15.2 8.50005C15.2 8.50005 15.2 8.50005 15.2 8.40005C15 8.30005 14.8 8.10005 14.6 8.00005C14.6 8.00005 14.5 8.00005 14.4 8.00005C14.2 8.00005 14 8.10005 13.8 8.10005ZM17.6 14.6C17.7 14.6 17.8 14.6 17.9 14.6C18.1 14.6 18.2 14.5 18.2 14.2C18.2 14 18 14 17.9 14C17.8 14 17.8 14 17.7 14.1C17.7 14.3 17.6 14.5 17.6 14.6ZM20 11.8001C20.1 11.7001 20.1 11.6 20.2 11.6C20.3 11.4 20.4 11.3 20.3 11.1C20.2 10.9 20 11 19.8 11.1C19.8 11.1 19.8 11.1 19.8 11.2C19.8 11.3 19.9 11.6001 20 11.8001ZM7.80002 13.5C7.80002 13.5 7.70002 13.5 7.80002 13.5C7.70002 13.9 7.70002 14.2 7.90002 14.6C8.00002 14.4 8.10004 14.3 8.10004 14.2C8.10004 13.9 7.90002 13.7 7.80002 13.5ZM11.7 19.3001C11.9 19.0001 12.1 18.7001 12.4 18.4001C11.9 18.4001 11.8 18.5001 11.8 18.9001C11.7 19.1 11.7 19.2001 11.7 19.3001ZM8.70004 11.1C8.50004 11 8.30004 11 8.10004 11C8.10004 11 8.00003 11 8.00003 11.1C8.00003 11.3 8.00002 11.5 7.90002 11.7C8.00002 11.6 8.10002 11.5001 8.30002 11.4001C8.40002 11.3001 8.50004 11.3 8.70004 11.1ZM14.5 18.9001C14.4 18.7001 14.3 18.5001 14.2 18.3001C14.2 18.3001 14.1 18.2001 14 18.3001C13.9 18.3001 13.9 18.7001 14 18.8001C14.2 18.9001 14.4 18.9001 14.5 18.9001ZM10.4 9.90005C10.7 9.80005 10.7 9.60005 10.7 9.40005C10.7 9.20005 10.6 9.20005 10.5 9.20005C10.4 9.20005 10.3 9.20005 10.3 9.30005C10.3 9.60005 10.3 9.70005 10.4 9.90005ZM14.2 16.8001C14.4 16.9001 14.5 17.0001 14.6 16.9001C14.7 16.9001 14.9 16.8 15 16.7C15 16.7 15 16.7 15 16.6C14.7 16.7 14.4 16.5001 14.2 16.8001ZM12 17.2C12.3 17.3 12.4 17.3 12.6 16.9001C12.3 16.8 12.2 16.8 12 17.2ZM9.60004 17.8001C9.30004 17.6001 9.20004 17.6 9.10004 17.9001C9.10004 18.0001 9.00004 18.1 9.20004 18.1C9.40004 18.1 9.50004 18.1001 9.60004 17.8001ZM6.60004 12.3001C6.70004 12.5001 6.80003 12.7001 7.00003 12.8001C7.00003 12.8001 7.10004 12.8001 7.20004 12.8001C7.20004 12.8001 7.20004 12.7 7.20004 12.6C7.00004 12.4 6.80004 12.3001 6.60004 12.3001ZM10.8 16.2L10.5 16.5C10.4 16.6 10.4 16.6 10.5 16.7C10.6 16.7 10.6 16.8001 10.7 16.8001C10.8 16.8001 10.9 16.7 10.9 16.6C10.9 16.5 10.8 16.3 10.8 16.2ZM11.2 17.7C11 17.6 10.7 17.6001 10.6 17.8001V17.9001C10.7 18.0001 10.9 18.0001 11 17.9001C11.1 17.9001 11.2 17.8 11.2 17.7ZM12.7 9.00005C13.1 8.90005 13.5 8.90005 13.9 8.80005C13.8 8.60005 13.1 8.70005 12.7 9.00005ZM14.7 9.20005C14.8 9.40005 14.8 9.50005 14.9 9.70005C15.1 9.60005 15.2 9.50005 15.4 9.40005C15.4 9.40005 15.4 9.40005 15.4 9.30005C15.1 9.20005 15 9.20005 14.7 9.20005ZM10.2 17.6C10.3 17.5 10.4 17.4001 10.5 17.4001C10.4 17.3 10.3 17.2 10.2 17.2C10.2 17.2 10.1 17.3 10 17.4001C10 17.5001 10.1 17.5 10.2 17.6ZM11.4 17C11.5 16.9 11.6 16.8 11.6 16.7V16.5C11.5 16.4 11.4 16.4 11.3 16.5C11.2 16.7 11.2 16.8 11.4 17ZM17.2 12.9001C17.2 13.1 17.1 13.2001 17.3 13.3001C17.4 13.4001 17.5 13.3 17.5 13.2C17.6 13 17.3 13.0001 17.2 12.9001ZM9.60004 18.2C9.80004 18.3 9.90004 18.3 10.1 18.2C10 18.1 10 18.0001 9.90002 17.9001C9.70002 17.8 9.60004 17.9 9.60004 18.2ZM16.7 12C16.7 11.7 16.8 11.4 16.5 11.2C16.4 11.4 16.4 11.4 16.7 12ZM9.20004 17.3001C9.20004 17.0001 8.80002 16.7 8.40002 16.7C8.60002 16.9 8.90004 17.1001 9.20004 17.3001ZM9.90002 11C10 11 10 11 10.1 11.1C10.3 11.2 10.4 11.1 10.5 10.9001C10.5 10.9001 10.5 10.8 10.5 10.7H10.4C10.2 10.9 10.1 10.9 9.90002 11ZM12.7 17.3001C12.8 17.3001 13 17.3001 13.1 17.3001L13.2 17.2C13.2 17.2 13.2 17.1 13.1 17.1C12.9 17 12.8 17.0001 12.7 17.3001ZM10.5 16.1C10.5 16 10.5 16 10.5 16.1C10.4 16 10.2 16 10.1 16.1C10 16.1 10 16.2001 10 16.3001C10 16.4001 10.1 16.4001 10.2 16.4001C10.4 16.2001 10.4 16.1 10.5 16.1ZM11.2 18.2C11.3 18.2 11.3 18.3 11.4 18.2C11.5 18.2 11.6 18.2 11.6 18.1C11.6 18 11.6 17.9001 11.6 17.8001C11.5 17.8001 11.4 17.9001 11.4 17.9001C11.3 18.0001 11.2 18.1 11.2 18.2ZM9.20004 13.1C9.30004 13.1 9.30004 13.1 9.20004 13.1C9.40004 12.9 9.60002 12.6001 9.80002 12.3001C9.80002 12.3001 9.70004 12.3 9.70004 12.2C9.50004 12.5 9.40004 12.8 9.20004 13.1ZM17.9 15C17.8 15 17.8 15 17.7 15C17.6 15 17.5 15 17.5 15.1C17.5 15.2 17.5 15.3 17.5 15.4001C17.6 15.4001 17.6 15.3001 17.7 15.3001C17.8 15.1001 17.9 15.1 17.9 15ZM18.7 10.8001C18.8 10.7001 18.8 10.7001 18.7 10.8001C18.6 10.6001 18.5 10.5001 18.3 10.4001H18.2C18.2 10.4001 18.2 10.5 18.3 10.5C18.4 10.6 18.6 10.7001 18.7 10.8001ZM12.4 17.7C12.6 17.9 12.9 17.8 12.9 17.6C12.5 17.6 12.4 17.6 12.4 17.7ZM18.7 10.9001C18.8 11.1 18.8 11.2001 18.9 11.3001H19C19 11.3001 19.1 11.3 19.1 11.2C19.1 11.1 19.1 11.1 19.1 10.9001C19 11.0001 18.8 10.9001 18.7 10.9001ZM10.8 8.30005C11.3 8.40005 11.4 8.40005 11.4 8.10005C11.2 8.20005 11 8.20005 10.8 8.30005ZM16.8 9.70005C17.1 9.90005 17.3 9.90005 17.4 9.80005C17.2 9.70005 16.9 9.60005 16.8 9.70005ZM18.3 13.2C18.3 13 18.4 12.9001 18.4 12.8001C18.4 12.8001 18.4 12.7 18.3 12.7H18.2C18.1 12.9 18.2 13.1 18.3 13.2ZM8.10004 15C8.10004 15 8.20004 15 8.10004 15C8.30004 14.9 8.30002 14.7 8.40002 14.6V14.5H8.30002C8.20002 14.7 8.10004 14.9 8.10004 15ZM16.9 16C16.9 15.9 16.9 15.9 16.9 16C16.9 15.9 16.8 15.8001 16.7 15.8001C16.6 15.9001 16.6 16 16.5 16L16.6 16.1C16.7 16 16.8 16 16.9 16ZM10.8 9.90005C11.1 9.90005 11.2 9.90005 11.4 9.70005C11.2 9.70005 11 9.70005 10.8 9.90005ZM9.80002 10.7C9.80002 10.7 9.80002 10.8 9.80002 10.7C10 10.7 10.1 10.6 10.3 10.6C10.3 10.6 10.3 10.5 10.4 10.5H10.3C10 10.5 9.90002 10.6 9.80002 10.7ZM9.10004 15.6C9.00004 15.7 8.90002 15.8 8.80002 15.9001H9.30002C9.20002 15.8 9.20004 15.7 9.10004 15.6ZM13.8 18.7C13.8 18.6 13.8 18.6 13.8 18.6C13.8 18.5 13.7 18.5001 13.6 18.4001C13.6 18.4001 13.5 18.4 13.4 18.5C13.5 18.6 13.5 18.6 13.6 18.7C13.7 18.6 13.7 18.6 13.8 18.7ZM18.6 12.5C18.7 12.4 18.7 12.3 18.7 12.2L18.6 12.1L18.5 12.2C18.5 12.3 18.5 12.4 18.6 12.5ZM11.6 8.80005C11.6 8.90005 11.6 8.90005 11.6 8.80005C11.6 9.00005 11.7 9.10005 11.8 9.30005C11.9 9.10005 11.8 8.90005 11.6 8.80005ZM11.3 9.60005C11.2 9.50005 11.1 9.50005 11 9.40005H10.9C10.9 9.40005 10.9 9.50005 10.9 9.60005H11C11.1 9.60005 11.2 9.60005 11.3 9.60005ZM6.00003 12.3001C6.10003 12.4001 6.20002 12.4 6.40002 12.5C6.40002 12.2 6.30003 12.1001 6.00003 12.3001ZM8.40002 13.6C8.40002 13.8 8.50003 13.9 8.50003 14.1C8.70003 13.8 8.60002 13.6 8.40002 13.6ZM12.5 16.2C12.3 16.2 12.2 16.1 12 16.1C12.2 16.3 12.4 16.4 12.5 16.2ZM11.1 8.70005C11 8.70005 10.9 8.70005 10.9 8.70005C10.8 8.70005 10.8 8.80005 10.8 8.80005V8.90005C10.9 8.90005 10.9 8.90005 11 8.80005C11 8.80005 11 8.80005 11.1 8.70005ZM9.60004 17.1C9.70004 17.2 9.80002 17.3 9.90002 17.4001C9.90002 17.1 9.90004 17.1 9.60004 17.1ZM12.4 8.10005C12.1 8.00005 12 8.00005 11.9 8.20005C12.1 8.20005 12.2 8.10005 12.4 8.10005ZM14.7 10.5V10.6C14.8 10.6 14.9 10.7 15 10.7C15 10.6 15 10.5 15 10.5C14.9 10.5 14.8 10.5 14.7 10.5ZM17.1 14.9001C17 14.9001 16.9 15 16.8 15L16.9 15.1C17 15.1 17.1 15.1 17.1 14.9001ZM18.2 12.1C18.2 12.2 18.2 12.4 18.2 12.5C18.2 12.6 18.2 12.6 18.3 12.7H18.4C18.4 12.6 18.4 12.6 18.4 12.5C18.3 12.3 18.3 12.2 18.2 12.1ZM16.2 16.9001C16.2 16.9001 16.1 16.8 16.2 16.9001C16.1 16.9001 16 17 16 17.1C16 17.1 16.1 17.2 16.1 17.1C16.2 17.1 16.2 17.0001 16.2 16.9001ZM16.9 13.2C16.9 13.2 17 13.2 16.9 13.2L17 12.8001H16.9V13.2ZM17.6 14.1C17.5 14.1 17.4 14.1 17.4 14.2C17.4 14.3 17.4 14.3 17.4 14.4001H17.5C17.5 14.3 17.6 14.2 17.6 14.1ZM17.6 10.1C17.7 10.2 17.8 10.2001 17.9 10.3001C17.9 10.0001 17.8 10 17.6 10.1ZM11.4 10.1C11.6 10.1 11.7 10.0001 11.8 9.90005C11.8 9.90005 11.8 9.90005 11.7 9.80005C11.6 9.90005 11.5 10 11.4 10.1ZM18.4 11.9001C18.4 11.9001 18.4 12.0001 18.4 11.9001C18.6 11.9001 18.7 11.9001 18.7 11.8001C18.7 11.8001 18.7 11.8 18.6 11.7C18.5 11.8 18.4 11.9001 18.4 11.9001ZM16.6 16.5C16.3 16.5 16.3 16.6001 16.4 16.8001C16.5 16.7001 16.6 16.6 16.6 16.5ZM15 17C15.1 17 15.2 17.0001 15.3 16.9001C15.3 16.9001 15.3 16.9001 15.3 16.8001C15.2 16.8001 15.1 16.9 15 17ZM16.1 10.8001V10.7C16 10.7 16 10.7 15.9 10.7V10.8001C15.9 10.9001 16 10.9001 16.1 10.8001ZM12.5 9.70005C12.5 9.60005 12.5 9.50005 12.4 9.40005C12.4 9.40005 12.4 9.40005 12.3 9.50005C12.4 9.60005 12.5 9.70005 12.5 9.70005ZM6.80002 14.2C6.80002 14.2 6.90002 14.2 6.80002 14.2C6.90002 14.1 6.90002 13.9001 6.90002 13.8001H6.80002C6.90002 13.9001 6.80002 14.1 6.80002 14.2Z" fill="white"/>
</svg>
