<svg width="31" height="31" viewBox="0 0 31 31" fill="none" xmlns="http://www.w3.org/2000/svg">
<path d="M15.2001 30.1001H14.9001C6.70015 30.1001 0.100098 23.5 0.100098 15.2V14.8999C0.100098 6.6999 6.70015 0.100098 14.9001 0.100098H15.2001C23.4001 0.100098 30.1001 6.6999 30.1001 14.8999V15.2C30.0001 23.4 23.4001 30.1001 15.2001 30.1001Z" fill="#00B7F1"/>
<path d="M15 7.69995C17.4 7.69995 17.7 7.70005 18.7 7.80005C19.6 7.80005 20.1 8.0001 20.4 8.1001C20.8 8.3001 21.1 8.50005 21.4 8.80005C21.7 9.10005 21.9 9.40005 22.1 9.80005C22.2 10.1 22.4 10.6 22.4 11.5C22.4 12.5 22.5 12.7 22.5 15.2C22.5 17.7 22.5 17.8999 22.4 18.8999C22.4 19.7999 22.2 20.3001 22.1 20.6001C21.9 21.0001 21.7 21.3001 21.4 21.6001C21.1 21.9001 20.8 22.1 20.4 22.3C20.1 22.4 19.6 22.6001 18.7 22.6001C17.7 22.6001 17.5 22.7 15 22.7C12.5 22.7 12.3 22.7001 11.3 22.6001C10.4 22.6001 9.89998 22.4 9.59998 22.3C9.19998 22.1 8.89998 21.9001 8.59998 21.6001C8.29998 21.3001 8.10002 21.0001 7.90002 20.6001C7.80002 20.3001 7.59998 19.7999 7.59998 18.8999C7.59998 17.8999 7.5 17.7 7.5 15.2C7.5 12.7 7.49998 12.5 7.59998 11.5C7.59998 10.6 7.80002 10.1 7.90002 9.80005C8.10002 9.40005 8.29998 9.10005 8.59998 8.80005C8.89998 8.50005 9.19998 8.3001 9.59998 8.1001C9.89998 8.0001 10.4 7.80005 11.3 7.80005C12.3 7.70005 12.6 7.69995 15 7.69995ZM15 6C12.5 6 12.2 6.0001 11.3 6.1001C10.3 6.1001 9.69998 6.3 9.09998 6.5C8.49998 6.7 8 7 7.5 7.5C7 8 6.7 8.5001 6.5 9.1001C6.3 9.7001 6.09998 10.3 6.09998 11.3C6.09998 12.3 6 12.6 6 15C6 17.4 5.99998 17.8 6.09998 18.7C6.09998 19.7 6.3 20.2999 6.5 20.8999C6.7 21.4999 7 22 7.5 22.5C8 23 8.49998 23.3 9.09998 23.5C9.69998 23.7 10.3 23.8999 11.3 23.8999C12.3 23.8999 12.6 24 15 24C17.5 24 17.8 23.9999 18.7 23.8999C19.7 23.8999 20.3 23.7 20.9 23.5C21.5 23.3 22 23 22.5 22.5C23 22 23.3 21.4999 23.5 20.8999C23.7 20.2999 23.9 19.7 23.9 18.7C23.9 17.7 24 17.4 24 15C24 12.6 24 12.2 23.9 11.3C23.9 10.3 23.7 9.7001 23.5 9.1001C23.3 8.5001 23 8 22.5 7.5C22 7 21.5 6.7 20.9 6.5C20.3 6.3 19.7 6.1001 18.7 6.1001C17.8 6.0001 17.5 6 15 6Z" fill="white"/>
<path d="M14.9999 10.3999C12.3999 10.3999 10.3999 12.5 10.3999 15C10.3999 17.6 12.4999 19.6001 14.9999 19.6001C17.4999 19.6001 19.5999 17.5 19.5999 15C19.6999 12.5 17.5999 10.3999 14.9999 10.3999ZM14.9999 18.1001C13.2999 18.1001 11.9999 16.8001 11.9999 15.1001C11.9999 13.4001 13.2999 12.1001 14.9999 12.1001C16.6999 12.1001 17.9999 13.4001 17.9999 15.1001C17.9999 16.7001 16.6999 18.1001 14.9999 18.1001Z" fill="white"/>
<path d="M19.8 11.3C20.4076 11.3 20.9 10.8075 20.9 10.2C20.9 9.59244 20.4076 9.1001 19.8 9.1001C19.1925 9.1001 18.7 9.59244 18.7 10.2C18.7 10.8075 19.1925 11.3 19.8 11.3Z" fill="white"/>
</svg>
