<svg width="27" height="27" viewBox="0 0 27 27" fill="none" xmlns="http://www.w3.org/2000/svg">
<path d="M13.9 26.4H13.6C6.50002 26.4 0.700027 20.6 0.700027 13.5V13.2C0.700027 6.10004 6.50002 0.300049 13.6 0.300049H13.9C21 0.300049 26.8 6.10004 26.8 13.2V13.5C26.7 20.6 21 26.4 13.9 26.4Z" fill="#00B7F1"/>
<path d="M14.8 12.2C15 12 15.2 11.7 15.4 11.5C16 10.9 16.8 10.6 17.7 10.6C18.2 10.6 18.7 10.6 19.1 10.8C20.2 11.1 20.8 11.9 21.1 12.9C21.3 13.7 21.4 14.5 21.4 15.3C21.4 17 21.4 18.7 21.4 20.5C21.4 20.7 21.4 20.7 21.2 20.7C20.3 20.7 19.4 20.7 18.5 20.7C18.3 20.7 18.3 20.7 18.3 20.5C18.3 18.9 18.3 17.2 18.3 15.6C18.3 15.2 18.3 14.8 18.2 14.4C18 13.7 17.5 13.3 16.7 13.3C15.6 13.4 15.1 13.9 15 14.9C15 15.2 15 15.4 15 15.7C15 17.3 15 18.9 15 20.5C15 20.7 15 20.7 14.8 20.7C13.9 20.7 13 20.7 12.1 20.7C12 20.7 11.9 20.7 11.9 20.5C11.9 17.3 11.9 14.2 11.9 11C11.9 10.8 12 10.8 12.1 10.8C12.9 10.8 13.8 10.8 14.6 10.8C14.8 10.8 14.8 10.8 14.8 11C14.8 11.5 14.8 11.9 14.8 12.2Z" fill="#FEFEFE"/>
<path d="M9.90001 15.8C9.90001 17.4 9.90001 18.9 9.90001 20.5C9.90001 20.7 9.90003 20.7 9.70003 20.7C8.80003 20.7 7.90002 20.7 7.00002 20.7C6.90002 20.7 6.8 20.7 6.8 20.5C6.8 17.3 6.8 14.2 6.8 11C6.8 10.9 6.80002 10.8 7.00002 10.8C7.90002 10.8 8.80003 10.8 9.70003 10.8C9.90003 10.8 9.90001 10.9 9.90001 11C9.90001 12.7 9.90001 14.3 9.90001 15.8Z" fill="#FEFEFE"/>
<path d="M10.2 7.8C10.2 8.8 9.40001 9.6 8.40001 9.6C7.40001 9.6 6.60002 8.8 6.60002 7.8C6.60002 6.8 7.40001 6 8.40001 6C9.40001 6 10.2 6.8 10.2 7.8Z" fill="#FEFEFE"/>
</svg>
