<svg width="1581" height="5932" viewBox="0 0 1581 5932" fill="none" xmlns="http://www.w3.org/2000/svg">
<path d="M459.7 898.1C477.815 898.1 492.5 883.415 492.5 865.3C492.5 847.185 477.815 832.5 459.7 832.5C441.585 832.5 426.9 847.185 426.9 865.3C426.9 883.415 441.585 898.1 459.7 898.1Z" fill="black"/>
<path d="M474.731 862.704V869.832H463.253V881.37H455.642V869.832H444.164V862.704H455.642V851.166H463.253V862.704H474.731Z" fill="white"/>
<path opacity="0.3" d="M1521.8 5931.4C1521.8 5931.4 1626.4 5528.3 1541.4 5384.3C1451.3 5231.6 1049.4 5285.6 779.4 5295.5C463.4 5307.1 280.4 5318.1 163.4 5305.1C94.6 5297.5 51.4 5280.2 18.4 5215.1C-20.6 5138.1 19.3 4845.1 16.4 4715.4C14.4 4626.1 42.7 4578.6 111.4 4546.1C166.4 4520.1 273 4522.8 456.4 4533.1C688.4 4546.1 1101.2 4580.8 1302.4 4566.1C1384.4 4560.1 1457.5 4522.9 1496.4 4486.1C1566.8 4419.4 1573.1 4327.6 1577.8 4233.9C1596.4 3857.4 1480.8 3822.9 1325.8 3813.9C1201.3 3806.7 1089.8 3812.9 903.8 3820.9C790.9 3825.8 571.8 3839.9 458.8 3838.8C371.3 3838 100.8 3863.9 34.8 3722.9C26.6 3705.4 20.3 3682.6 15.6 3656.3L13.2 3638.4C7.70003 3555.2 22.7 3458.6 27.8 3350.8C31 3284.4 15.4 3191.1 20.8 3133.8C28.8 3048.9 94.6 3016.7 148.4 3010C244 2998.2 535.4 3017.8 713.4 3028C1010.4 3045.1 1330.1 3077.2 1449.4 3007C1539.4 2954 1553.2 2864.6 1550.4 2786C1544.4 2618 1560.4 2485 1517.4 2406C1491.9 2359.2 1428.8 2325.1 1357.4 2314C1190.4 2288 966.2 2306.4 779.4 2323.2C480.4 2350 264.6 2352 149.4 2339C69.4 2330 21.4 2270 14.4 2208C0.500031 2085.1 19.3 1872.7 16.4 1743C14.4 1653.7 18.7 1612.1 90.4 1587C150.4 1566 276.4 1581.2 459.8 1591.5C691.8 1604.5 1141.1 1661.7 1331.4 1612C1538.4 1558 1570.6 1407 1577.8 1261.5C1596.4 885 1480.8 850.5 1325.8 841.5C1201.3 834.3 1089.8 840.5 903.8 848.5C790.9 853.4 571.8 867.5 458.8 866.4C371.3 865.6 109.4 896 34.8 750.5C31.5 744 13.1 704.4 11.4 652C8.70003 566.1 24.6 445.4 27.8 378.5C31 312.1 15.4 218.8 20.8 161.5C28.8 76.6 82.9 50.2 136.8 44.5C206 37.2 357.2 54.5 506.8 51.5C707.4 47.5 936.4 27.6001 1080.8 26.4001C1340.8 24.3001 1518.8 61.2001 1518.8 61.2001" stroke="#00B9EE" stroke-width="2" stroke-miterlimit="10" stroke-dasharray="12 12"/>
<path d="M1290 55.7999C1302.59 55.7999 1312.8 45.592 1312.8 32.9999C1312.8 20.4078 1302.59 10.2 1290 10.2C1277.41 10.2 1267.2 20.4078 1267.2 32.9999C1267.2 45.592 1277.41 55.7999 1290 55.7999Z" fill="black"/>
<path d="M1301.12 31.0063L1300.72 36.0236L1292.64 35.3804L1291.99 43.5015L1286.63 43.075L1287.28 34.9538L1279.2 34.3106L1279.6 29.2934L1287.68 29.9366L1288.33 21.8154L1293.68 22.242L1293.04 30.3631L1301.12 31.0063Z" fill="white"/>
<path d="M1464.8 894.5C1476.29 894.5 1485.6 885.187 1485.6 873.7C1485.6 862.212 1476.29 852.9 1464.8 852.9C1453.31 852.9 1444 862.212 1444 873.7C1444 885.187 1453.31 894.5 1464.8 894.5Z" fill="black"/>
<path d="M1474.64 874.818L1472.84 879.228L1465.74 876.335L1462.83 883.472L1458.13 881.554L1461.03 874.416L1453.93 871.522L1455.73 867.113L1462.83 870.006L1465.74 862.868L1470.45 864.787L1467.54 871.925L1474.64 874.818Z" fill="white"/>
<path d="M826.8 1644.9C840.607 1644.9 851.8 1633.71 851.8 1619.9C851.8 1606.09 840.607 1594.9 826.8 1594.9C812.993 1594.9 801.8 1606.09 801.8 1619.9C801.8 1633.71 812.993 1644.9 826.8 1644.9Z" fill="black"/>
<path d="M838.64 1617.34L838.483 1622.65L829.936 1622.39L829.682 1630.98L824.015 1630.82L824.269 1622.23L815.722 1621.97L815.879 1616.66L824.426 1616.92L824.68 1608.33L830.348 1608.49L830.094 1617.09L838.64 1617.34Z" fill="white"/>
</svg>
