<svg width="27" height="27" viewBox="0 0 27 27" fill="none" xmlns="http://www.w3.org/2000/svg">
<path d="M13.9 26.4H13.6C6.50002 26.4 0.700027 20.6 0.700027 13.5V13.2C0.700027 6.10004 6.50002 0.300049 13.6 0.300049H13.9C21 0.300049 26.8 6.10004 26.8 13.2V13.5C26.8 20.6 21 26.4 13.9 26.4Z" fill="#00B7F1"/>
<path d="M13.8 21.1001C18.0526 21.1001 21.5 17.6527 21.5 13.4001C21.5 9.14749 18.0526 5.70007 13.8 5.70007C9.54741 5.70007 6.10002 9.14749 6.10002 13.4001C6.10002 17.6527 9.54741 21.1001 13.8 21.1001Z" fill="white"/>
<path d="M13.8 16.8001C15.6778 16.8001 17.2 15.2779 17.2 13.4001C17.2 11.5224 15.6778 10.0001 13.8 10.0001C11.9222 10.0001 10.4 11.5224 10.4 13.4001C10.4 15.2779 11.9222 16.8001 13.8 16.8001Z" fill="#00B7F1"/>
</svg>
