<svg width="29" height="30" viewBox="0 0 29 30" fill="none" xmlns="http://www.w3.org/2000/svg">
<path d="M28.4 25.0001L22.9 20.3001C22.8 20.2001 22.6 20.2001 22.5 20.2001C22.2 20.2001 22.1 20.3001 21.9 20.5001C21.3 21.4001 20.4 22.1001 19.6 22.8001C19.5 22.9001 19.3 23.1001 19.3 23.2001C19.3 23.3001 19.3 23.6001 19.4 23.8001L24.1 29.3001C24.4 29.7001 24.8 29.9001 25.4 29.9001C25.8 29.9001 26.3 29.8001 26.6 29.5001L28.5 27.6001C28.8 27.3001 28.9 26.9001 28.9 26.4001C29 25.7001 28.8 25.3001 28.4 25.0001Z" fill="black"/>
<path d="M12.5 25.6C15.8 25.6 18.9 24.3 21.2 22C23.5 19.7 24.8 16.6 24.8 13.3C24.8 6.50003 19.3 0.900024 12.4 0.900024C5.60002 1.00002 0 6.60002 0 13.4C0 20.2 5.7 25.6 12.5 25.6ZM4.09998 13.4C4.09998 8.70002 7.90002 5.10002 12.4 5.10002C17.1 5.10002 20.7 8.90002 20.7 13.4C20.7 15.6 19.8 17.8 18.2 19.2C16.6 20.8 14.6 21.7 12.4 21.7C7.90002 21.7 4.09998 17.9 4.09998 13.4Z" fill="black"/>
</svg>
