<svg width="31" height="31" viewBox="0 0 31 31" fill="none" xmlns="http://www.w3.org/2000/svg">
<path fill-rule="evenodd" clip-rule="evenodd" d="M15 0.100098C11.2 0.100098 7.60005 1.5001 4.80005 4.1001C2.00005 6.7001 0.3 10.1999 0 13.8999L8 17.2C8.7 16.7 9.50002 16.5 10.4 16.5H10.6L14.2 11.3V11.2C14.2 10.1 14.5 9.0001 15.2 8.1001C15.8 7.2001 16.7 6.4 17.7 6C18.7 5.6 19.9 5.49995 21 5.69995C22.1 5.89995 23.1 6.50005 23.9 7.30005C24.7 8.10005 25.2 9.09995 25.4 10.2C25.6 11.3 25.5 12.4 25.1 13.5C24.7 14.5 23.9 15.4 23 16C22.1 16.6 21 17 19.9 17H19.8L14.7 20.6001V20.8C14.7 21.9 14.3 22.9 13.6 23.7C12.9 24.5 11.9 25.0001 10.9 25.1001C9.80002 25.2001 8.80002 24.9 7.90002 24.3C7.10002 23.7 6.50005 22.7 6.30005 21.7L0.5 19.3C1.3 22 2.80005 24.4 4.80005 26.3C6.90005 28.2 9.39995 29.5 12.2 30C14.9 30.5 17.8 30.3 20.4 29.2C23 28.2 25.3 26.5 27 24.2C28.7 22 29.7 19.3 30 16.5C30.3 13.7 29.7 10.8999 28.5 8.3999C27.3 5.8999 25.3 3.80005 23 2.30005C20.5 0.900049 17.8 0.100098 15 0.100098Z" fill="#00B7F1"/>
<path fill-rule="evenodd" clip-rule="evenodd" d="M9.40015 22.8003L7.6001 22.0002C7.9001 22.6002 8.30017 23.0003 8.80017 23.3003C9.30017 23.6003 9.9001 23.8003 10.6001 23.8003C11.2001 23.8003 11.8002 23.6002 12.3002 23.2002C12.8002 22.8002 13.2001 22.4003 13.4001 21.8003C13.6001 21.2003 13.7001 20.6002 13.6001 20.0002C13.5001 19.4002 13.2002 18.8001 12.8002 18.4001C12.4002 18.0001 11.8001 17.7002 11.2001 17.5002C10.6001 17.4002 10.0001 17.4003 9.40015 17.6003L11.3002 18.4001C11.9002 18.6001 12.3001 19.1002 12.6001 19.7002C12.8001 20.3002 12.8001 20.9002 12.6001 21.5002C12.4001 22.1002 11.9002 22.5003 11.3002 22.8003C10.6002 23.1003 10.0001 23.1003 9.40015 22.8003Z" fill="#00B7F1"/>
<path fill-rule="evenodd" clip-rule="evenodd" d="M23.0998 9.09986C23.4998 9.69986 23.6997 10.4997 23.6997 11.1997C23.6997 12.1997 23.2998 13.1997 22.5998 13.8997C21.8998 14.5997 20.8998 14.9998 19.8998 14.9998C19.1998 14.9998 18.3998 14.7997 17.7998 14.3997C17.1998 13.9997 16.6998 13.3997 16.3998 12.6997C16.0998 11.9997 15.9997 11.2998 16.1997 10.4998C16.2997 9.79976 16.6997 9.09986 17.1997 8.59986C17.6997 8.09986 18.3998 7.69986 19.0998 7.59986C19.7998 7.49986 20.5998 7.49981 21.2998 7.79981C22.0998 7.99981 22.6998 8.49986 23.0998 9.09986Z" fill="#00B7F1"/>
</svg>
