<svg width="30" height="31" viewBox="0 0 30 31" fill="none" xmlns="http://www.w3.org/2000/svg">
<path d="M15.1 30.1001H14.8C6.60005 30.1001 0 23.5 0 15.2V14.8999C0 6.6999 6.60005 0.100098 14.8 0.100098H15.1C23.3 0.100098 29.9 6.6999 29.9 14.8999V15.2C29.9 23.4 23.3 30.1001 15.1 30.1001Z" fill="#00B7F1"/>
<path d="M11.9999 22.9001C18.9999 22.9001 22.8999 17.1002 22.8999 12.0002C22.8999 11.8002 22.8999 11.7002 22.8999 11.5002C23.5999 11.0002 24.2999 10.3002 24.7999 9.50024C24.0999 9.80024 23.3999 10.0003 22.5999 10.1003C23.3999 9.60034 23.9999 8.90024 24.2999 8.00024C23.5999 8.40024 22.6999 8.80015 21.8999 8.90015C21.1999 8.20015 20.1999 7.7002 19.0999 7.7002C16.9999 7.7002 15.2999 9.40024 15.2999 11.5002C15.2999 11.8002 15.2999 12.1001 15.3999 12.4001C12.1999 12.2001 9.39988 10.7001 7.49988 8.40015C7.19988 9.00015 6.99988 9.60029 6.99988 10.3003C6.99988 11.6003 7.69983 12.8002 8.69983 13.5002C8.09983 13.5002 7.49988 13.3002 6.99988 13.0002C6.99988 14.8002 8.29985 16.4002 10.0999 16.7002C9.79985 16.8002 9.39985 16.8003 9.09985 16.8003C8.89985 16.8003 8.5999 16.8002 8.3999 16.7002C8.8999 18.2002 10.2999 19.3003 11.9999 19.3003C10.6999 20.3003 9.09993 20.9001 7.29993 20.9001C6.99993 20.9001 6.6999 20.9003 6.3999 20.8003C7.7999 22.3003 9.79988 22.9001 11.9999 22.9001Z" fill="white"/>
</svg>
