<svg width="34" height="34" viewBox="0 0 34 34" fill="none" xmlns="http://www.w3.org/2000/svg">
<path opacity="0.5" d="M17.0004 33.4H16.7004C7.70039 33.4 0.400391 26.1 0.400391 17.1V16.8C0.400391 7.79999 7.70039 0.5 16.7004 0.5H17.0004C26.0004 0.5 33.3004 7.79999 33.3004 16.8V17.1C33.3004 26.1 26.0004 33.4 17.0004 33.4Z" fill="#A5B4C4"/>
<path d="M7.2998 21.6C7.3998 21.4 7.3998 21.1 7.4998 20.9C7.6998 20.2 7.99981 19.5 8.59981 19C9.99981 17.6 11.2998 16.3 12.6998 14.9C14.6998 13 17.9998 13.4 19.4998 15.8V15.9C19.1998 16.2 18.9998 16.5 18.6998 16.7C18.2998 17.1 17.6998 17 17.1998 16.6C16.6998 16.2 16.1998 16 15.5998 16C14.9998 16 14.4998 16.2 14.0998 16.6C12.7998 17.9 11.4998 19.2 10.1998 20.5C9.2998 21.4 9.3998 22.8 10.1998 23.6C11.0998 24.5 12.3998 24.5 13.2998 23.6C14.0998 22.8 14.9998 22 15.7998 21.1C15.8998 21 15.9998 20.9 16.1998 21C16.9998 21.3 17.7998 21.4 18.6998 21.2H18.7998C18.6998 21.3 18.6998 21.3 18.5998 21.4C17.3998 22.6 16.1998 23.8 14.9998 25C14.1998 25.8 13.2998 26.2 12.2998 26.4H12.1998C11.8998 26.4 11.6998 26.4 11.3998 26.4H11.2998C9.4998 26.1 8.19981 25.1 7.59981 23.4C7.49981 23.1 7.3998 22.7 7.3998 22.4C7.2998 22.1 7.2998 21.9 7.2998 21.6Z" fill="white"/>
<path d="M26.3002 12.3C26.2002 12.6 26.2002 13 26.1002 13.3C25.9002 13.9 25.6002 14.5 25.1002 14.9C23.7002 16.3 22.4002 17.7 21.0002 19C19.3002 20.7 16.4002 20.6 14.8002 18.8C14.6002 18.6 14.4002 18.3 14.2002 18C14.5002 17.7 14.8002 17.4 15.1002 17.2C15.5002 16.9 16.1002 16.9 16.5002 17.3C16.9002 17.6 17.3002 17.9 17.8002 17.9C18.5002 18 19.2002 17.8 19.7002 17.3C20.5002 16.5 21.3002 15.7 22.1002 14.9C22.6002 14.4 23.1002 14 23.5002 13.5C24.1002 12.9 24.3002 12.1 24.1002 11.3C23.9002 10.5 23.3002 9.89999 22.5002 9.79999C21.7002 9.59999 21.0002 9.80002 20.5002 10.4C19.7002 11.2 18.8002 12.1 18.0002 12.9C17.9002 13 17.8002 13 17.7002 13C16.9002 12.7 16.0002 12.6 15.1002 12.7C15.1002 12.7 15.1002 12.6 15.0002 12.6C15.1002 12.6 15.1002 12.6 15.2002 12.5C16.4002 11.3 17.6002 10.1 18.8002 8.90002C19.6002 8.10002 20.5002 7.7 21.5002 7.5H21.6002C21.9002 7.5 22.1002 7.5 22.4002 7.5H22.5002C24.3002 7.7 25.8002 8.99999 26.3002 10.8C26.4002 11 26.4002 11.3 26.5002 11.5C26.3002 11.8 26.3002 12 26.3002 12.3Z" fill="white"/>
</svg>
