<svg width="28" height="32" viewBox="0 0 28 32" fill="none" xmlns="http://www.w3.org/2000/svg">
<path d="M20.3008 0.699951C20.3008 1.59995 20.3008 2.5 20.3008 3.5C14.7008 3.5 9.2008 3.5 3.6008 3.5C3.6008 10 3.6008 16.4 3.6008 22.9C2.7008 22.9 1.80078 22.9 0.800781 22.9C0.800781 22.8 0.800781 22.7 0.800781 22.6C0.800781 16.3 0.800781 10 0.800781 3.80005C0.800781 2.30005 1.80081 1.00005 3.20081 0.800049C9.00081 0.700049 14.6008 0.699951 20.3008 0.699951Z" fill="#1C283A"/>
<path d="M27.2008 18.8C27.2008 22 27.2008 25.2 27.2008 28.4C27.2008 29.6 26.7008 30.5 25.6008 31C25.2008 31.2 24.7008 31.3 24.3008 31.3C19.3008 31.3 14.2008 31.3 9.20081 31.3C7.50081 31.3 6.30078 30.1 6.30078 28.4C6.30078 22 6.30078 15.6 6.30078 9.09998C6.30078 7.49998 7.5008 6.19995 9.1008 6.19995C14.1008 6.19995 19.2008 6.19995 24.2008 6.19995C25.9008 6.19995 27.0008 7.39998 27.0008 9.09998C27.2008 12.4 27.2008 15.6 27.2008 18.8ZM9.20081 9.09998C9.20081 15.6 9.20081 22 9.20081 28.5C14.3008 28.5 19.3008 28.5 24.4008 28.5C24.4008 22 24.4008 15.6 24.4008 9.09998C19.4008 9.09998 14.3008 9.09998 9.20081 9.09998Z" fill="#1C283A"/>
</svg>
