<svg width="25" height="29" viewBox="0 0 25 29" fill="none" xmlns="http://www.w3.org/2000/svg">
<path d="M18.4008 0.699951C18.4008 1.49995 18.4008 2.39995 18.4008 3.19995C13.4008 3.19995 8.40078 3.19995 3.30078 3.19995C3.30078 9.09995 3.30078 14.9 3.30078 20.8C2.50078 20.8 1.60078 20.8 0.800781 20.8C0.800781 20.7 0.800781 20.6 0.800781 20.5C0.800781 14.8 0.800781 9.0999 0.800781 3.3999C0.800781 1.9999 1.70079 0.899951 3.00079 0.699951C8.20079 0.699951 13.3008 0.699951 18.4008 0.699951Z" fill="#1C283A"/>
<path d="M24.7008 17C24.7008 19.9 24.7008 22.8 24.7008 25.7C24.7008 26.8 24.3008 27.6001 23.3008 28.1001C22.9008 28.3001 22.5008 28.3999 22.1008 28.3999C17.5008 28.3999 13.0008 28.3999 8.40079 28.3999C6.90079 28.3999 5.80078 27.3 5.80078 25.8C5.80078 20 5.80078 14.1999 5.80078 8.3999C5.80078 6.8999 6.90079 5.80005 8.40079 5.80005C13.0008 5.80005 17.5008 5.80005 22.1008 5.80005C23.6008 5.80005 24.7008 6.8999 24.7008 8.3999C24.7008 11.1999 24.7008 14.1 24.7008 17ZM8.40079 8.19995C8.40079 14.1 8.40079 19.9 8.40079 25.8C13.0008 25.8 17.6008 25.8 22.2008 25.8C22.2008 19.9 22.2008 14.1 22.2008 8.19995C17.6008 8.19995 13.0008 8.19995 8.40079 8.19995Z" fill="#1C283A"/>
</svg>
