<svg width="1581" height="5907" viewBox="0 0 1581 5907" fill="none" xmlns="http://www.w3.org/2000/svg">
<path opacity="0.3" d="M1521.8 5906.4C1521.8 5906.4 1626.4 5503.3 1541.4 5359.3C1451.3 5206.6 1049.4 5260.6 779.4 5270.5C463.4 5282.1 280.4 5293.1 163.4 5280.1C94.6 5272.5 51.4 5255.2 18.4 5190.1C-20.6 5113.1 19.3 4820.1 16.4 4690.4C14.4 4601.1 42.7 4553.6 111.4 4521.1C166.4 4495.1 273 4497.8 456.4 4508.1C688.4 4521.1 1101.2 4555.8 1302.4 4541.1C1384.4 4535.1 1457.5 4497.9 1496.4 4461.1C1566.8 4394.4 1573.1 4302.6 1577.8 4208.9C1596.4 3832.4 1480.8 3797.9 1325.8 3788.9C1201.3 3781.7 1089.8 3787.9 903.8 3795.9C790.9 3800.8 571.8 3814.9 458.8 3813.8C371.3 3813 100.8 3838.9 34.8 3697.9C26.6 3680.4 20.3 3657.6 15.6 3631.3L13.2 3613.4C7.70003 3530.2 22.7 3433.6 27.8 3325.8C31 3259.4 15.4 3166.1 20.8 3108.8C28.8 3023.9 94.6 2991.7 148.4 2985C244 2973.2 535.4 2992.8 713.4 3003C1010.4 3020.1 1330.1 3052.2 1449.4 2982C1539.4 2929 1553.2 2839.6 1550.4 2761C1544.4 2593 1560.4 2460 1517.4 2381C1491.9 2334.2 1428.8 2300.1 1357.4 2289C1190.4 2263 966.2 2281.4 779.4 2298.2C480.4 2325 264.6 2327 149.4 2314C69.4 2305 21.4 2245 14.4 2183C0.500031 2060.1 19.3 1847.7 16.4 1718C14.4 1628.7 18.7 1587.1 90.4 1562C150.4 1541 276.4 1556.2 459.8 1566.5C691.8 1579.5 1141.1 1636.7 1331.4 1587C1538.4 1533 1570.6 1382 1577.8 1236.5C1596.4 860 1480.8 825.5 1325.8 816.5C1201.3 809.3 1089.8 815.5 903.8 823.5C790.9 828.4 571.8 842.5 458.8 841.4C371.3 840.6 109.4 871 34.8 725.5C31.5 719 13.1 679.4 11.4 627C8.70003 541.1 24.6 420.4 27.8 353.5C31 287.1 15.4 193.8 20.8 136.5C28.8 51.6 82.9 25.2 136.8 19.5C206 12.2 357.2 29.5 506.8 26.5C707.4 22.5 936.4 2.60007 1080.8 1.40007C1340.8 -0.699929 1518.8 36.2001 1518.8 36.2001" stroke="#00B9EE" stroke-width="2" stroke-miterlimit="10" stroke-dasharray="12 12"/>
</svg>
