<svg width="31" height="31" viewBox="0 0 31 31" fill="none" xmlns="http://www.w3.org/2000/svg">
<path d="M15.4999 30.1001H15.1998C6.99983 30.1001 0.399902 23.5 0.399902 15.2V14.8999C0.399902 6.6999 6.99983 0.100098 15.1998 0.100098H15.4999C23.6999 0.100098 30.2999 6.6999 30.2999 14.8999V15.2C30.2999 23.4 23.6999 30.1001 15.4999 30.1001Z" fill="#00B7F1"/>
<path d="M16.7999 7.29969C16.4999 8.89969 16.0999 10.4997 15.7999 12.0997C16.1999 12.0997 16.5998 12.1996 16.9998 12.1996C18.6998 12.3996 20.1998 12.9995 21.5998 13.8995C21.7998 13.9995 21.8998 13.9995 21.9998 13.8995C22.9998 13.0995 24.4998 13.3995 25.1998 14.3995C25.8998 15.4995 25.6998 16.8997 24.5998 17.5997C24.4998 17.5997 24.4998 17.6997 24.4998 17.7997C24.5998 19.6997 23.7998 21.1995 22.3998 22.3995C20.9998 23.5995 19.3998 24.1996 17.5998 24.4996C15.2998 24.8996 12.9998 24.6997 10.8998 23.7997C9.39984 23.1997 8.09977 22.2995 7.19977 20.8995C6.59977 19.9995 6.39984 18.9995 6.39984 17.8995C6.39984 17.6995 6.39977 17.6997 6.19977 17.5997C5.29977 17.0997 4.89979 16.1996 5.09979 15.1996C5.19979 14.2996 5.99984 13.5995 6.89984 13.3995C7.59984 13.2995 8.19977 13.3997 8.69977 13.7997C8.79977 13.8997 8.89979 13.8997 9.09979 13.7997C10.7998 12.6997 12.6999 12.0996 14.7999 11.9996C14.8999 11.9996 14.9998 11.8997 14.9998 11.7997C15.2998 10.0997 15.6998 8.49969 16.0998 6.79969C16.1998 6.29969 16.3998 6.19969 16.8998 6.29969C17.9998 6.49969 19.1999 6.79965 20.2999 6.99965C20.3999 6.99965 20.4998 6.99955 20.5998 6.89955C20.9998 6.29955 21.7998 6.09955 22.4998 6.39955C23.0998 6.69955 23.4998 7.39974 23.3998 8.09974C23.2998 8.79974 22.5998 9.29969 21.8998 9.29969C21.1998 9.29969 20.5998 8.79974 20.3998 8.09974C20.3998 7.99974 20.2998 7.89955 20.1998 7.89955C18.9998 7.69955 17.8999 7.49969 16.7999 7.29969ZM20.3998 17.2997C20.3998 16.3997 19.6998 15.6996 18.8998 15.6996C18.0998 15.6996 17.3998 16.3996 17.3998 17.1996C17.3998 18.0996 18.1998 18.7997 19.0998 18.7997C19.6998 18.7997 20.3998 18.0997 20.3998 17.2997ZM11.5998 15.5997C10.7998 15.5997 10.0998 16.2997 9.99982 17.0997C9.99982 17.9997 10.6998 18.6996 11.4998 18.6996C12.3998 18.6996 13.0998 17.9996 13.0998 17.1996C13.1998 16.2996 12.4998 15.5997 11.5998 15.5997ZM15.2999 22.6996C15.6999 22.6996 15.9998 22.6997 16.3998 22.5997C16.7998 22.4997 17.0998 22.4997 17.4998 22.2997C17.9998 22.0997 18.4998 21.6996 19.0998 21.4996C19.2998 21.3996 19.2999 21.2997 19.2999 21.0997C19.1999 20.8997 19.0998 20.7997 18.8998 20.7997C18.7998 20.7997 18.6998 20.8995 18.5998 20.8995C16.9998 22.0995 13.9999 22.1995 12.2999 20.8995C12.1999 20.8995 12.1998 20.7997 12.0998 20.7997C11.9998 20.7997 11.7998 20.7995 11.6998 20.8995C11.5998 20.9995 11.5998 21.1997 11.5998 21.2997C11.5998 21.3997 11.6999 21.4997 11.7999 21.5997C12.6999 22.2997 13.9999 22.6996 15.2999 22.6996Z" fill="white"/>
</svg>
