<svg width="28" height="28" viewBox="0 0 28 28" fill="none" xmlns="http://www.w3.org/2000/svg">
<g clip-path="url(#clip0_302_2)">
<path d="M0.900024 11.8C0.900024 18.2 6.00002 23.3 12.5 23.3C15.6 23.3 18.5 22.1 20.7 19.9C22.9 17.7 24.1 14.8 24.1 11.7C24.1 5.2 18.9 0 12.5 0C6.10002 0.1 0.900024 5.4 0.900024 11.8ZM12.4 2.7C17.4 2.7 21.4 6.8 21.4 11.7C21.4 14.1 20.4 16.5 18.7 18.1C17 19.8 14.7 20.8 12.4 20.8C7.50002 20.8 3.40002 16.7 3.40002 11.8C3.30002 6.8 7.40002 2.7 12.4 2.7Z" fill="#1C283A"/>
<path d="M27.7 25L25.6 27.2001C25.4 27.5001 24.9 27.4001 24.7 27.2001L20.1 21.9L22.2 19.8L27.7 24.2001C27.9 24.3001 28 24.8 27.7 25Z" fill="#1C283A"/>
</g>
<defs>
<clipPath id="clip0_302_2">
<rect width="27" height="27.4" fill="white" transform="translate(0.900024)"/>
</clipPath>
</defs>
</svg>
