<svg width="31" height="31" viewBox="0 0 31 31" fill="none" xmlns="http://www.w3.org/2000/svg">
<path d="M15.4998 30.1001H15.1998C6.99983 30.1001 0.299805 23.5 0.299805 15.2V14.8999C0.299805 6.6999 6.89983 0.100098 15.1998 0.100098H15.4998C23.6998 0.100098 30.2998 6.6999 30.2998 14.8999V15.2C30.3998 23.4 23.6998 30.1001 15.4998 30.1001Z" fill="#00B7F1"/>
<path d="M24.3998 10.5C24.1998 9.7 23.4998 9.10005 22.6998 8.80005C21.1998 8.40005 15.2998 8.3999 15.2998 8.3999C15.2998 8.3999 9.39984 8.40005 7.89984 8.80005C7.09984 9.00005 6.49983 9.7 6.19983 10.5C5.79983 12 5.7998 15 5.7998 15C5.7998 15 5.79983 18.1 6.19983 19.5C6.39983 20.3 7.09984 20.9 7.89984 21.2C9.39984 21.6 15.2998 21.6001 15.2998 21.6001C15.2998 21.6001 21.1998 21.6 22.6998 21.2C23.4998 21 24.0998 20.3 24.3998 19.5C24.7998 18 24.7998 15 24.7998 15C24.7998 15 24.7998 12 24.3998 10.5ZM13.4998 17.8999V12.2L18.3998 15L13.4998 17.8999Z" fill="white"/>
</svg>
